<svg id="Capa_1" data-name="Capa 1" xmlns="http://www.w3.org/2000/svg" viewBox="0 0 515.24 238.6"><defs><style>.cls-1{fill:#606060;}.cls-1,.cls-2,.cls-3,.cls-4{stroke:#000;stroke-miterlimit:10;stroke-width:5px;}.cls-2{fill:#b51a13;}.cls-3{fill:#202020;}.cls-4{fill:#e3e952;}.cls-5,.cls-6{isolation:isolate;}.cls-5{font-size:22.11px;font-family:BerlinSansFB-Bold, Berlin Sans FB;font-weight:700;}.cls-6{font-size:75.17px;font-family:MonotypeCorsiva, Monotype Corsiva;}</style></defs><title>logo</title><g id="Capa_2" data-name="Capa 2"><g id="Capa_1-2" data-name="Capa 1-2"><path class="cls-1" d="M494.29,114.83c0,61.26-104,110.91-228.61,110.91S21.39,176.09,21.39,114.83,141,3.92,265.68,3.92,494.29,53.58,494.29,114.83Z" transform="translate(0 0)"/><path class="cls-2" d="M22.75,119.3c.13,62.59,143.31,104.38,150.56,106.43,28.81,8.15,54.29,9,73.48,9.88C122.14,235.61,2.5,185.23,2.5,120.72S122.14,3.92,246.79,3.92A298.7,298.7,0,0,0,173,13.45C122.52,26.58,22.65,67,22.75,119.3Z" transform="translate(0 0)"/><path class="cls-2" d="M492.48,119.73c-.13,62.59-143.3,104.38-150.55,106.43-28.82,8.15-54.29,9-73.49,9.88,124.66,0,244.3-50.38,244.3-114.89S393.1,4.35,268.44,4.35a298.84,298.84,0,0,1,73.8,9.53C392.71,27,492.59,67.41,492.48,119.73Z" transform="translate(0 0)"/><path class="cls-3" d="M475.4,119.3c0,64.51-95.19,116.8-209.33,116.8S42.38,183.81,42.38,119.3,151.93,2.5,266.07,2.5,475.4,54.79,475.4,119.3Z" transform="translate(0 0)"/><path class="cls-4" d="M475.4,120.72C475.4,175,380.21,219,266.07,219S42.38,175,42.38,120.72,151.93,22.44,266.07,22.44,475.4,66.44,475.4,120.72Z" transform="translate(0 0)"/><text class="cls-5" transform="translate(112.43 74.44) scale(1.96 1)">METALURGICA</text><text class="cls-6" transform="translate(74.81 158.88) scale(1.27 1)">El Gallego</text></g></g></svg>