<svg id="Capa_1" enable-background="new 0 0 512.002 512.002" height="512" viewBox="0 0 512.002 512.002" width="512" xmlns="http://www.w3.org/2000/svg"><g><g><g clip-rule="evenodd" fill-rule="evenodd"><path d="m322.501 96.806h167.001c8.249 0 14.999-6.75 14.999-15s-6.748-15-14.999-15h-170.747c-3.446 0-6.176.554-9.094 2.505l-295.494 197.584c-6.858 4.586-8.736 13.937-4.16 20.801s13.943 8.745 20.801 4.16z" fill="#d4b981"/><path d="m337.501 310.193h137.001v135.002h29.999v-240.001h-196.999v60h-90v60.001h-90v60h-90v60h299.999z" fill="#bdedd4"/><path d="m341.607 310.193h137.001v135.003h-137.001z" fill="#d4b981"/><path d="m29.759 256.47-15.592 10.426c-6.858 4.586-8.736 13.937-4.16 20.801s13.943 8.745 20.801 4.16l15.584-10.42c-6.856 4.572-16.213 2.689-20.786-4.17-4.575-6.863-2.699-16.21 4.153-20.797z" fill="#967f50"/><path d="m330.001 205.194h-22.5v67.5h22.5zm-90 60h-22.5v67.5h22.5zm-90 60.001h-22.5v67.5h22.5zm-90 60h-22.5v60h22.5z" fill="#7bdaa9"/><path d="m337.501 445.195h22.5v-135.002h-22.5zm68.501 0h22.5v-135.002h-22.5z" fill="#967f50"/></g><g><path d="m482.002 242.694h-15v-15h15zm-30 0h-15v-15h15z" fill="#fff"/></g></g><g><path d="m497.002 377.696h15v15h-15z"/><path d="m467.003 104.306h22.5c12.406 0 22.499-10.093 22.499-22.5 0-12.406-10.093-22.5-22.499-22.5h-170.748c-3.549 0-8.263.429-13.263 3.771l-141.511 94.622 8.338 12.469 141.51-94.622c1.23-.823 2.331-1.24 4.926-1.24h170.748c4.135 0 7.499 3.364 7.499 7.5s-3.364 7.5-7.499 7.5h-169.278l-293.586 196.316c-1.643 1.099-3.633 1.488-5.607 1.096-1.98-.395-3.68-1.524-4.784-3.182-2.291-3.437-1.354-8.104 2.089-10.406l141.511-94.622-8.338-12.469-141.511 94.621c-10.309 6.893-13.104 20.887-6.231 31.196 3.329 4.994 8.419 8.393 14.333 9.572 1.488.296 2.982.443 4.465.443 4.397 0 8.688-1.291 12.412-3.781l10.024-6.703v86.308h-30v15h15v60h482v-45h-15v30h-15v-135.002h-152v135.003h-285v-45h90v-60h90v-60h90v-60h182v150.002h15v-165.004h-44.999zm-.001 333.39h-53.5v-120.003h53.5zm-122-120.003h53.5v120.003h-53.5zm107.001-119.999h-122.001v-93.388h122.001zm-347.001 120.001v15h15v45h-60v-96.338l75-50.151v86.489zm90-60.001v15h15v45h-60v-96.519l75-50.151v86.669h-30zm90-60v15h15v45h-60v-96.7l75-50.151v86.85h-30z"/><path d="m368.502 370.194h15v15h-15z"/><path d="m428.502 370.194h15v15h-15z"/></g></g></svg>