<svg height="480pt" viewBox="0 -17 480.00125 480" width="480pt" xmlns="http://www.w3.org/2000/svg"><path d="m64 437.5625v-224l32-96 144-80 144 80 32 96v224zm0 0" fill="#eb4042"/><g fill="#d53332"><path d="m397.359375 157.5625h-314.71875l5.359375-16h304zm0 0"/><path d="m386.640625 125.5625h-293.28125l2.640625-8 14.398438-8h259.203124l14.398438 8zm0 0"/><path d="m340.800781 93.5625h-201.601562l28.800781-16h144zm0 0"/><path d="m408 189.5625h-336l5.359375-16h325.28125zm0 0"/><path d="m416 213.5625v8h-352v-8l2.640625-8h346.71875zm0 0"/><path d="m64 237.5625h352v16h-352zm0 0"/><path d="m64 269.5625h352v16h-352zm0 0"/><path d="m64 301.5625h352v16h-352zm0 0"/><path d="m64 333.5625h352v16h-352zm0 0"/><path d="m64 365.5625h352v16h-352zm0 0"/><path d="m64 397.5625h352v16h-352zm0 0"/><path d="m192 277.5625h96v160h-96zm0 0"/></g><path d="m72 405.5625c0 17.671875-14.328125 32-32 32s-32-14.328125-32-32 14.328125-32 32-32 32 14.328125 32 32zm0 0" fill="#ecaf4a"/><path d="m368 437.5625c-9.695312.039062-18.464844-5.765625-22.21875-14.703125-3.757812-8.941406-1.761719-19.261719 5.050781-26.160156 6.8125-6.902344 17.109375-9.023438 26.097657-5.375 1.738281-6.628907 6.246093-12.183594 12.375-15.25 6.128906-3.0625 13.277343-3.335938 19.625-.75 2.335937-8.566407 9.222656-15.136719 17.890624-17.066407 8.664063-1.929687 17.6875 1.097657 23.4375 7.863282s7.285157 16.160156 3.980469 24.402344c11.554688 3.15625 18.996094 14.371093 17.421875 26.242187-1.574218 11.875-11.683594 20.757813-23.660156 20.796875zm0 0" fill="#88bf40"/><path d="m280 165.5625c0 22.089844-17.910156 40-40 40s-40-17.910156-40-40 17.910156-40 40-40 40 17.910156 40 40zm0 0" fill="#0093b9"/><path d="m43.769531 373.9375c2.738281 4.753906 4.195313 10.136719 4.230469 15.625 0 17.671875-14.328125 32-32 32-1.261719-.050781-2.519531-.175781-3.769531-.375 7.351562 13.160156 22.917969 19.382812 37.316406 14.910156 14.398437-4.46875 23.703125-18.410156 22.304687-33.421875-1.394531-15.011719-13.105468-26.996093-28.082031-28.738281zm0 0" fill="#d69f44"/><path d="m136 405.5625c0 17.671875-14.328125 32-32 32s-32-14.328125-32-32 14.328125-32 32-32 32 14.328125 32 32zm0 0" fill="#ecaf4a"/><path d="m107.769531 373.9375c2.738281 4.753906 4.195313 10.136719 4.230469 15.625 0 17.671875-14.328125 32-32 32-1.261719-.050781-2.519531-.175781-3.769531-.375 7.351562 13.160156 22.917969 19.382812 37.316406 14.910156 14.398437-4.46875 23.703125-18.410156 22.304687-33.421875-1.394531-15.011719-13.105468-26.996093-28.082031-28.738281zm0 0" fill="#d69f44"/><path d="m104 349.5625c0 17.671875-14.328125 32-32 32s-32-14.328125-32-32 14.328125-32 32-32 32 14.328125 32 32zm0 0" fill="#ecaf4a"/><path d="m75.769531 317.9375c2.738281 4.753906 4.195313 10.136719 4.230469 15.625 0 17.671875-14.328125 32-32 32-1.261719-.050781-2.519531-.175781-3.769531-.375 7.351562 13.160156 22.917969 19.382812 37.316406 14.910156 14.398437-4.46875 23.703125-18.410156 22.304687-33.421875-1.394531-15.011719-13.105468-26.996093-28.082031-28.738281zm0 0" fill="#d69f44"/><path d="m160 261.5625h160v32h-160zm0 0" fill="#354f5c"/><path d="m408 141.5625-168-104-168 104v40l168-104 168 104zm0 0" fill="#d53332"/><path d="m456 237.5625-40-8-32-96-144-80-144 80-32 96-40 8-8-32 23.511719-3.734375 30.0625-90.195313 170.425781-94.679687 170.425781 94.679687 30.0625 90.195313 23.511719 3.734375zm0 0" fill="#354f5c"/><path d="m420.125 89.5625 7.761719-13.980469 12.839843 7.128907-7.761718 13.984374zm0 0"/><path d="m284.117188 13.984375 7.773437-13.984375 119.988281 66.699219-7.773437 13.984375zm0 0"/><path d="m463.710938 385.785156c.195312-1.398437.289062-2.808594.289062-4.222656 0-17.671875-14.328125-32-32-32-2.699219.007812-5.390625.363281-8 1.054688v-111.292969l30.398438 6.078125c.527343.109375 1.0625.164062 1.601562.160156 3.667969-.003906 6.863281-2.503906 7.753906-6.0625l8-32c.539063-2.175781.144532-4.476562-1.09375-6.347656-1.234375-1.867188-3.199218-3.132813-5.410156-3.484375l-18.722656-2.976563-28.527344-85.601562c-.632812-1.894532-1.949219-3.484375-3.695312-4.457032l-170.417969-94.671874c-2.417969-1.34375-5.355469-1.34375-7.773438 0l-170.402343 94.679687c-1.742188.972656-3.0625 2.5625-3.695313 4.457031l-28.527344 85.601563-18.71875 2.976562c-2.214843.351563-4.179687 1.617188-5.414062 3.484375-1.238281 1.871094-1.632813 4.171875-1.089844 6.347656l8 32c1.039063 4.140626 5.148437 6.734376 9.335937 5.894532l30.398438-6.078125v73.597656c-14.570312 6.359375-23.992188 20.742187-24 36.640625.015625 5.675781 1.253906 11.285156 3.632812 16.441406-14.300781 1.445313-26.695312 10.523438-32.390624 23.71875-5.695313 13.199219-3.792969 28.445313 4.964843 39.839844h-8.207031v16h480v-16h-4.449219c4.378907-7.34375 5.585938-16.144531 3.355469-24.398438-2.230469-8.25-7.714844-15.242187-15.195312-19.378906zm-437.832032-173.695312 14.890625-2.398438c2.945313-.46875 5.390625-2.539062 6.335938-5.367187l29.078125-87.25 163.816406-90.976563 163.816406 91.015625 29.078125 87.25c.945313 2.832031 3.390625 4.898438 6.335938 5.367188l14.890625 2.398437-4 16.128906-28-5.597656-30.527344-91.625c-.632812-1.898437-1.957031-3.492187-3.707031-4.464844l-144-80c-2.417969-1.34375-5.355469-1.34375-7.773438 0l-144 80c-1.75.972657-3.074219 2.566407-3.707031 4.464844l-30.527344 91.589844-28 5.601562zm46.121094 18.777344 30.609375-91.816407 137.390625-76.335937 137.390625 76.335937 30.609375 91.816407v129.75c-1.429688 1.617187-2.695312 3.367187-3.777344 5.234374-12.925781-1.660156-25.570312 4.664063-32 16-1.398437-.191406-2.808594-.289062-4.222656-.289062-17.671875 0-32 14.328125-32 32 .035156 5.632812 1.570312 11.15625 4.449219 16h-44.449219v-128h24c4.417969 0 8-3.582031 8-8v-32c0-4.417969-3.582031-8-8-8h-160c-4.417969 0-8 3.582031-8 8v32c0 4.417969 3.582031 8 8 8h24v128h-48.207031c8.757812-11.394531 10.660156-26.640625 4.964843-39.839844-5.691406-13.195312-18.089843-22.273437-32.390624-23.71875 2.378906-5.15625 3.617187-10.765625 3.632812-16.441406-.027344-22.082031-17.917969-39.972656-40-40zm208 89.09375v91.203124l-30.398438-45.601562zm-40 31.203124-33.054688-49.601562h66.109376zm-72-65.601562v-16h144v16zm62.398438 80-30.398438 45.601562v-91.203124zm9.601562 14.398438 33.054688 49.601562h-66.109376zm-160 25.601562c0-13.253906 10.746094-24 24-24s24 10.746094 24 24-10.746094 24-24 24-24-10.746094-24-24zm-7.792969 24h-.414062c.070312-.089844.144531-.160156.207031-.25.0625.089844.136719.160156.207031.25zm-.207031-104c13.253906 0 24 10.746094 24 24s-10.746094 24-24 24-24-10.746094-24-24 10.746094-24 24-24zm-56 80c0-13.253906 10.746094-24 24-24s24 10.746094 24 24-10.746094 24-24 24-24-10.746094-24-24zm352 24c-6.464844.027344-12.3125-3.839844-14.820312-9.800781-2.503907-5.960938-1.175782-12.84375 3.371093-17.445313 4.542969-4.597656 11.410157-6.011718 17.402344-3.578125 2.113281.867188 4.503906.773438 6.542969-.265625 2.042968-1.019531 3.554687-2.863281 4.152344-5.070312 1.210937-4.375 4.222656-8.035156 8.28125-10.066406 4.0625-2.03125 8.792968-2.25 13.023437-.597657 2.113281.867188 4.503906.773438 6.542969-.265625 2.042968-1.019531 3.554687-2.863281 4.152344-5.070312 1.515624-5.75 6.101562-10.175782 11.898437-11.488282 5.800781-1.3125 11.847656.710938 15.6875 5.246094 3.839844 4.539063 4.839844 10.835938 2.589844 16.339844-.851563 2.117188-.757813 4.5.261719 6.546875 1.015624 2.042969 2.859374 3.558594 5.066406 4.15625 7.734375 2.074219 12.734375 9.5625 11.683594 17.5-1.050782 7.941406-7.828126 13.871094-15.835938 13.859375zm0 0"/><path d="m240 213.5625c26.511719 0 48-21.492188 48-48 0-26.511719-21.488281-48-48-48-26.507812 0-48 21.488281-48 48 .027344 26.5 21.5 47.972656 48 48zm-30.863281-40h22.863281v22.863281c-11.195312-2.925781-19.9375-11.667969-22.863281-22.863281zm38.863281 22.863281v-22.863281h22.863281c-2.925781 11.195312-11.667969 19.9375-22.863281 22.863281zm22.863281-38.863281h-22.863281v-22.863281c11.195312 2.925781 19.9375 11.667969 22.863281 22.863281zm-38.863281-22.863281v22.863281h-22.863281c2.925781-11.195312 11.667969-19.9375 22.863281-22.863281zm0 0"/><path d="m152 157.5625h16v16h-16zm0 0"/><path d="m312 157.5625h16v16h-16zm0 0"/></svg>