<svg id="Capa_1" enable-background="new 0 0 512 512" height="512" viewBox="0 0 512 512" width="512" xmlns="http://www.w3.org/2000/svg"><g><g><path d="m211.661 46.263h-201.661v63.752h492v-63.752h-202.321z" fill="#e0e7ef"/><path d="m10 401.985h492v63.751h-492z" fill="#e0e7ef"/><g fill="#9ebccf"><path d="m35.106 110.015h42.167v291.971h-42.167z"/><path d="m168.943 110.015h42.167v291.971h-42.167z"/><path d="m301.78 110.015h42.167v291.971h-42.167z"/><path d="m435.617 110.015h42.167v291.971h-42.167z"/></g><path d="m77.273 200.988h91.67v109.993h-91.67z" fill="#5c90ae"/></g><g><g><path d="m502 120.015c5.523 0 10-4.477 10-10v-63.752c0-5.523-4.477-10-10-10h-202.321c-5.523 0-10 4.477-10 10s4.477 10 10 10h192.321v43.751h-472v-43.751h191.662c5.523 0 10-4.477 10-10s-4.477-10-10-10h-201.662c-5.523 0-10 4.477-10 10v63.751c0 5.523 4.477 10 10 10h15.106v271.971h-15.106c-5.523 0-10 4.477-10 10v63.751c0 5.523 4.477 10 10 10h492c5.523 0 10-4.477 10-10v-63.751c0-5.523-4.477-10-10-10h-14.216v-271.97zm-148.053 271.97v-271.97h71.67v271.971h-71.67zm-20-271.97v271.971h-22.167v-271.971zm-112.837 271.97v-271.97h70.67v271.971h-70.67zm-20-271.97v271.971h-22.167v-271.971zm-113.838 271.97v-71.004h71.67v71.004zm0-180.997h71.67v89.993h-71.67zm71.671-20h-71.67v-70.974h71.67zm-113.837-70.973h22.167v271.971h-22.167zm446.894 335.722h-472v-43.751h472zm-24.216-63.752h-22.167v-271.97h22.167z"/><path d="m131.504 230.797h-16.211c-5.523 0-10 4.477-10 10 0 4.875 3.489 8.929 8.105 9.815v20.606c0 5.523 4.477 10 10 10s10-4.477 10-10v-20.606c4.616-.886 8.105-4.941 8.105-9.815.001-5.523-4.476-10-9.999-10z"/><path d="m247.35 50.09c1.609 3.863 5.54 6.354 9.719 6.157 4.105-.193 7.748-2.995 9.018-6.898 1.258-3.868-.009-8.239-3.163-10.816-3.376-2.759-8.264-2.989-11.894-.583-3.938 2.61-5.464 7.789-3.68 12.14z"/></g></g></g></svg>