<?xml version="1.0" encoding="iso-8859-1"?>
<!-- Generator: Adobe Illustrator 19.0.0, SVG Export Plug-In . SVG Version: 6.00 Build 0)  -->
<svg version="1.1" id="Capa_1" xmlns="http://www.w3.org/2000/svg" xmlns:xlink="http://www.w3.org/1999/xlink" x="0px" y="0px"
	 viewBox="0 0 511.999 511.999" style="enable-background:new 0 0 511.999 511.999;" xml:space="preserve">
<g>
	<polygon style="fill:#C68F7B;" points="331.004,214.037 331.004,274.031 331.004,291.536 385.998,291.536 385.998,274.031 
		385.998,214.037 385.998,144.041 331.004,144.041 	"/>
	<g>
		<polygon style="fill:#FC4F5C;" points="331.004,291.536 331.004,214.037 255.99,214.037 69.999,214.037 39.033,334.029 
			472.946,334.029 457.463,274.031 441.982,214.037 385.998,214.037 385.998,291.536 		"/>
		<polygon style="fill:#FC4F5C;" points="472.946,334.029 39.033,334.029 23.549,394.026 10,446.531 37.234,446.531 255.99,446.531 
			474.745,446.531 501.981,446.531 		"/>
	</g>
	<polygon style="fill:#FCC8A4;" points="474.745,446.531 255.99,446.531 37.234,446.531 37.234,486.531 474.745,486.531 	"/>
</g>
<g>
	<path style="fill:#000001;" d="M511.498,443.393l-59.835-231.856c-1.14-4.415-5.122-7.501-9.683-7.501h-45.983v-51.187
		c18.774-4.516,32.771-21.437,32.771-41.574c0-19.651-13.326-36.238-31.414-41.226c0.038-0.814,0.08-1.629,0.08-2.447
		c0-28.746-23.385-52.133-52.129-52.133c-9.135,0-18.146,2.416-26.063,6.985c-4.783,2.761-6.423,8.877-3.662,13.659
		c2.761,4.783,8.875,6.423,13.659,3.662c4.881-2.817,10.436-4.307,16.065-4.307c17.716,0,32.13,14.415,32.13,32.134
		c0,0.599-0.025,1.197-0.059,1.794c-4.47,0.921-8.786,2.546-12.761,4.843c-4.782,2.763-6.42,8.879-3.657,13.66
		c2.762,4.781,8.876,6.42,13.66,3.657c3.454-1.995,7.388-3.05,11.379-3.05c0.002,0,0.005,0,0.007,0c0,0,0.003,0,0.005,0
		c12.552,0.006,22.76,10.218,22.76,22.769c0,12.545-10.201,22.752-22.745,22.766c-0.009,0-0.017-0.001-0.025-0.001H333.43
		c-19.069-0.042-34.571-15.565-34.571-34.644c0-3.038,0.397-6.052,1.178-8.959c1.436-5.333-1.726-10.82-7.059-12.254
		c-5.336-1.433-10.819,1.726-12.254,7.059c-1.238,4.6-1.865,9.362-1.865,14.153c0,0.114,0.008,0.226,0.009,0.34
		c-3.773,2.615-8.238,4.036-12.93,4.036c-12.553,0-22.767-10.214-22.767-22.767c0-1.992,0.261-3.975,0.774-5.891
		c1.432-5.334-1.733-10.819-7.067-12.25c-5.335-1.431-10.819,1.734-12.249,7.068c-0.968,3.606-1.458,7.332-1.458,11.073
		c0,23.582,19.185,42.766,42.766,42.766c5.97,0,11.747-1.225,17.059-3.536c6.658,16.074,20.771,28.295,38.007,32.346v51.456H69.999
		c-4.56,0-8.543,3.085-9.683,7.501l-60,232.494c-0.772,2.995-0.117,6.178,1.777,8.623s4.813,3.876,7.905,3.876h17.234v30.001
		c0,5.523,4.478,10,10,10h437.51c5.522,0,10-4.477,10-10V456.53h17.237c0.005-0.001,0.012-0.001,0.02,0c5.523,0,10-4.477,10-10
		C512,445.435,511.825,444.38,511.498,443.393z M434.235,224.036l10.322,39.995h-48.559v-39.995L434.235,224.036L434.235,224.036z
		 M375.998,214.037v67.499h-34.996v-67.499V154.04h34.996V214.037z M77.746,224.036h243.258v39.995H178.92h-51.033
		c-5.522,0-10,4.477-10,10s4.478,10,10,10h51.033h142.084v7.505c0,5.523,4.478,10,10,10h54.995c5.523,0,10-4.477,10-10v-7.505h53.72
		l10.323,39.998H51.94L77.746,224.036z M464.745,476.531H47.233V456.53h417.511L464.745,476.531L464.745,476.531z M474.745,436.531
		H37.234H22.907l8.389-32.506h334.082h51.031c5.522,0,10-4.477,10-10s-4.478-10-10-10h-51.031H36.458l10.322-39.997h418.423
		l23.872,92.502L474.745,436.531L474.745,436.531z"/>
	<path style="fill:#000001;" d="M445.376,384.029h-0.236c-5.522,0-10,4.477-10,10s4.478,10,10,10h0.236c5.522,0,10-4.477,10-10
		S450.897,384.029,445.376,384.029z"/>
	<path style="fill:#000001;" d="M98.92,284.031h0.236c5.522,0,10-4.477,10-10s-4.478-10-10-10H98.92c-5.522,0-10,4.477-10,10
		S93.397,284.031,98.92,284.031z"/>
</g>
<g>
</g>
<g>
</g>
<g>
</g>
<g>
</g>
<g>
</g>
<g>
</g>
<g>
</g>
<g>
</g>
<g>
</g>
<g>
</g>
<g>
</g>
<g>
</g>
<g>
</g>
<g>
</g>
<g>
</g>
</svg>
